<svg width="46" height="46" fill="none" stroke="currentColor" stroke-linecap="round" stroke-linejoin="round" stroke-width="2" viewBox="0 0 24 24" xmlns="http://www.w3.org/2000/svg">
  <path d="M22.607 16.95a5.03 5.03 0 0 0-.435-4.714 4.981 4.981 0 0 0-1.794-1.643A4.944 4.944 0 0 0 18.025 10h-1.253a8.008 8.008 0 0 0-2.553-4.123A7.926 7.926 0 0 0 9.765 4"></path>
  <path d="M5.005 5c-1.552.864-2.674 2.225-3.37 3.867a8.046 8.046 0 0 0-.367 5.195 8.002 8.002 0 0 0 2.89 4.322A7.919 7.919 0 0 0 9.079 20h8.945c.576 0 1.148-.102 1.69-.3"></path>
  <path d="m1 1 22 22"></path>
</svg>