<svg width="46" height="46" fill="none" stroke="currentColor" stroke-linecap="round" stroke-linejoin="round" stroke-width="2" viewBox="0 0 24 24" xmlns="http://www.w3.org/2000/svg">
  <path d="M15 9.343v-5.34a3 3 0 0 0-5.94-.6"></path>
  <path d="M9 8.999v3a3 3 0 0 0 5.12 2.12"></path>
  <path d="M17 16.91a7.012 7.012 0 0 1-3.594 1.947 7.038 7.038 0 0 1-4.075-.384 6.992 6.992 0 0 1-3.163-2.584A6.932 6.932 0 0 1 5 11.988V9.999"></path>
  <path d="M19 9.999v1.989c0 .41-.037.819-.11 1.223"></path>
  <path d="M12 18.996v4"></path>
  <path d="M8 22.999h8"></path>
  <path d="m1 1 22 22"></path>
</svg>